<svg width="300" height="300" viewBox="0 0 300 300" fill="none" xmlns="http://www.w3.org/2000/svg">
<rect width="300" height="300" fill="#D9D9D9"/>
<path d="M134.967 123.113L133.505 127.5H123C118.036 127.5 114 131.536 114 136.5V172.5C114 177.464 118.036 181.5 123 181.5H177C181.964 181.5 186 177.464 186 172.5V136.5C186 131.536 181.964 127.5 177 127.5H166.495L165.033 123.113C164.119 120.356 161.545 118.5 158.634 118.5H141.366C138.455 118.5 135.881 120.356 134.967 123.113ZM150 141C153.58 141 157.014 142.422 159.546 144.954C162.078 147.486 163.5 150.92 163.5 154.5C163.5 158.08 162.078 161.514 159.546 164.046C157.014 166.578 153.58 168 150 168C146.42 168 142.986 166.578 140.454 164.046C137.922 161.514 136.5 158.08 136.5 154.5C136.5 150.92 137.922 147.486 140.454 144.954C142.986 142.422 146.42 141 150 141Z" fill="#6C6C6C"/>
</svg>
