<svg width="52" height="52" viewBox="0 0 52 52" fill="none" xmlns="http://www.w3.org/2000/svg">
<path d="M18.6184 1.23651C19.6284 3.06376 20.2057 5.16474 20.2057 7.40605C20.2057 14.4609 14.5163 20.1562 7.45992 20.1562C5.20344 20.1562 3.09 19.5695 1.25443 18.5465C0.513686 20.9622 0.130716 23.4733 0.117615 26C0.117611 29.3989 0.787087 32.7646 2.0878 35.9048C3.3885 39.0449 5.29495 41.8982 7.69835 44.3016C10.1017 46.705 12.955 48.6115 16.0952 49.9122C19.2354 51.2129 22.601 51.8824 26 51.8824C29.3989 51.8824 32.7645 51.2129 35.9047 49.9122C39.0449 48.6115 41.8982 46.705 44.3016 44.3016C46.705 41.8982 48.6114 39.0449 49.9121 35.9048C51.2129 32.7646 51.8823 29.3989 51.8823 26C51.8823 22.6011 51.2129 19.2354 49.9121 16.0952C48.6114 12.9551 46.705 10.1018 44.3016 7.69841C41.8982 5.29501 39.0449 3.38852 35.9047 2.08781C32.7645 0.787101 29.3989 0.117642 26 0.117645C23.4983 0.131896 21.0119 0.508767 18.6184 1.23651Z" fill="#FF6600"/>
<path d="M9.79325 7.97904C5.722 8.00121 1.99743 10.2751 0.117615 13.8864C1.9783 16.028 4.67088 17.2647 7.50782 17.2809C10.7433 17.2744 13.7703 15.6829 15.6083 13.0202C16.1278 12.2518 16.5362 11.414 16.8218 10.5315C17.1717 9.52946 17.3577 8.4775 17.3725 7.4162C17.3704 4.68294 16.2335 2.07324 14.2341 0.209534C13.524 1.84524 13.1506 3.60717 13.136 5.39031C13.1534 6.49678 13.3071 7.59687 13.5965 8.66496C12.3793 8.21313 11.0916 7.98091 9.79325 7.97904Z" fill="#FF6600"/>
<rect x="18" y="20" width="15.84" height="1.97999" rx="0.989996" fill="white"/>
<rect x="18" y="24.9499" width="15.84" height="1.97999" rx="0.989996" fill="white"/>
<rect x="18" y="29.9" width="15.84" height="1.97999" rx="0.989996" fill="white"/>
</svg>
