<svg width="547" height="113" viewBox="0 0 547 113" fill="none" xmlns="http://www.w3.org/2000/svg">
<g clip-path="url(#clip0_6_40)">
<path d="M0.371582 112.4V51.832H26.4861C29.4447 51.832 32.1756 52.4291 34.6789 53.6234C37.1823 54.8177 39.3443 56.4386 41.1649 58.4859C42.9855 60.4764 44.3794 62.7229 45.3467 65.2252C46.3708 67.7276 46.8828 70.2583 46.8828 72.8176C46.8828 76.4005 46.0294 79.7843 44.3225 82.9691C42.6726 86.1539 40.3399 88.77 37.3245 90.8174C34.366 92.8079 30.8955 93.8031 26.9128 93.8031H17.0132V112.4H0.371582ZM17.0132 79.3009H25.8034C26.4861 79.3009 27.1404 79.1019 27.7663 78.7038C28.3921 78.3057 28.9042 77.6232 29.3024 76.6564C29.7576 75.6896 29.9851 74.41 29.9851 72.8176C29.9851 71.1114 29.7291 69.8034 29.2171 68.8934C28.7619 67.9266 28.1645 67.2726 27.4249 66.9314C26.7422 66.5333 26.0594 66.3342 25.3767 66.3342H17.0132V79.3009ZM80.8487 112.912C76.2403 112.912 72.0585 112.059 68.3035 110.353C64.5485 108.59 61.3055 106.258 58.5745 103.358C55.9005 100.4 53.8238 97.1017 52.3446 93.4619C50.9222 89.7653 50.211 85.9549 50.211 82.0307C50.211 77.9929 50.9791 74.154 52.5153 70.5143C54.0514 66.8745 56.185 63.6328 58.9159 60.7892C61.7037 57.8888 64.9752 55.6139 68.7302 53.9647C72.5421 52.3154 76.6954 51.4908 81.1901 51.4908C85.7986 51.4908 89.9803 52.3723 93.7353 54.1353C97.4903 55.8414 100.705 58.1732 103.379 61.1305C106.053 64.0878 108.101 67.4148 109.524 71.1114C111.003 74.7512 111.742 78.5047 111.742 82.372C111.742 86.353 110.974 90.1634 109.438 93.8031C107.959 97.4429 105.825 100.713 103.038 103.613C100.307 106.457 97.0636 108.732 93.3086 110.438C89.5536 112.087 85.4003 112.912 80.8487 112.912ZM67.1087 82.2013C67.1087 84.2487 67.3932 86.2392 67.9621 88.1729C68.5311 90.0496 69.3845 91.7558 70.5224 93.2913C71.6602 94.77 73.0826 95.9642 74.7894 96.8742C76.5532 97.7273 78.6298 98.1538 81.0194 98.1538C83.409 98.1538 85.4856 97.6988 87.2493 96.7889C89.0131 95.8789 90.4354 94.6562 91.5164 93.1207C92.6543 91.5283 93.4793 89.7937 93.9913 87.9169C94.5603 85.9833 94.8448 84.0212 94.8448 82.0307C94.8448 79.9834 94.5603 78.0213 93.9913 76.1445C93.4224 74.2678 92.569 72.5901 91.4311 71.1114C90.2932 69.5759 88.8424 68.3816 87.0787 67.5285C85.3149 66.6754 83.2667 66.2489 80.9341 66.2489C78.5445 66.2489 76.4678 66.7039 74.7041 67.6138C72.9973 68.5238 71.5749 69.7465 70.437 71.282C69.2991 72.7607 68.4457 74.4668 67.8768 76.4005C67.3647 78.2772 67.1087 80.2108 67.1087 82.2013ZM165.081 66.3342H147.671V112.4H131.03V66.3342H113.535V51.832H165.081V66.3342ZM214.323 97.8979V112.4H171.14V51.832H213.555V66.3342H187.782V74.8649H209.8V88.3435H187.782V97.8979H214.323ZM238.731 82.6279V112.4H222.089V51.832H235.061L259.384 82.6279V51.832H276.025V112.4H262.797L238.731 82.6279ZM283.108 81.6042C283.108 77.9075 283.791 74.2962 285.157 70.7702C286.579 67.1873 288.627 63.9456 291.301 61.0452C293.975 58.1447 297.218 55.8414 301.03 54.1353C304.899 52.3723 309.252 51.4908 314.088 51.4908C319.891 51.4908 324.954 52.7135 329.278 55.159C333.602 57.5476 336.817 60.7324 338.922 64.7134L326.206 73.7559C325.466 71.7654 324.385 70.2299 322.963 69.1493C321.598 68.0688 320.09 67.3295 318.44 66.9314C316.847 66.4764 315.282 66.2489 313.746 66.2489C311.357 66.2489 309.28 66.7323 307.516 67.6991C305.809 68.6091 304.387 69.8318 303.249 71.3673C302.168 72.9029 301.343 74.609 300.774 76.4858C300.262 78.3625 300.006 80.2393 300.006 82.116C300.006 84.2203 300.319 86.2392 300.945 88.1729C301.571 90.1065 302.481 91.8411 303.676 93.3766C304.871 94.8552 306.321 96.0211 308.028 96.8742C309.792 97.7273 311.755 98.1538 313.917 98.1538C315.453 98.1538 317.018 97.9263 318.611 97.4713C320.204 96.9595 321.655 96.1633 322.963 95.0827C324.272 94.0022 325.267 92.552 325.95 90.7321L339.519 98.8363C338.325 101.794 336.333 104.324 333.545 106.429C330.758 108.533 327.6 110.154 324.073 111.291C320.545 112.372 317.046 112.912 313.576 112.912C309.081 112.912 304.956 112.03 301.201 110.267C297.503 108.448 294.288 106.059 291.557 103.102C288.883 100.087 286.807 96.732 285.327 93.0354C283.848 89.2818 283.108 85.4715 283.108 81.6042ZM343.786 96.0211C344.128 96.2486 345.209 96.732 347.029 97.4713C348.85 98.2107 350.984 98.5803 353.43 98.5803C355.194 98.5803 356.616 98.296 357.697 97.7273C358.778 97.1017 359.575 96.1633 360.087 94.9121C360.656 93.661 361.026 92.0401 361.196 90.0496C361.424 88.0022 361.538 85.5283 361.538 82.6279V51.832H378.179V82.6279C378.179 87.2345 377.895 91.4145 377.326 95.168C376.814 98.9216 375.733 102.163 374.083 104.893C372.433 107.623 369.958 109.727 366.658 111.206C363.358 112.628 358.949 113.338 353.43 113.338C350.813 113.338 348.424 113.026 346.262 112.4C344.1 111.775 342.108 110.836 340.288 109.585L343.786 96.0211ZM400.368 51.832H418.972L438.26 112.4H421.362L417.692 100.542H401.563L397.978 112.4H380.995L400.368 51.832ZM415.047 89.4525L409.67 68.1257L404.038 89.4525H415.047ZM440.308 90.9027L436.638 82.2867L467.02 67.4432L470.689 76.0592L440.308 90.9027ZM444.319 112.4V51.832H460.961V97.8979H488.441V112.4H444.319ZM519.761 112.912C514.925 112.912 510.772 112.116 507.301 110.523C503.831 108.931 500.986 106.741 498.767 103.955C496.605 101.168 495.012 97.9832 493.988 94.4003C492.964 90.7605 492.452 86.9501 492.452 82.9691V51.832H509.093V82.9691C509.093 84.9596 509.292 86.8648 509.691 88.6847C510.089 90.5046 510.715 92.1254 511.568 93.5472C512.422 94.969 513.503 96.1064 514.811 96.9595C516.177 97.7557 517.827 98.1538 519.761 98.1538C521.752 98.1538 523.431 97.7557 524.796 96.9595C526.162 96.1064 527.243 94.969 528.039 93.5472C528.893 92.0686 529.518 90.4193 529.917 88.5994C530.315 86.7795 530.514 84.9027 530.514 82.9691V51.832H547.156V82.9691C547.156 87.1776 546.587 91.1017 545.449 94.7415C544.368 98.3813 542.718 101.566 540.499 104.296C538.28 107.026 535.435 109.158 531.965 110.694C528.551 112.173 524.483 112.912 519.761 112.912Z" fill="#ffffff"/>
<path d="M8.9577 40.2151L0.37146 0.512422H4.57696L11.1189 31.1652L10.0675 31.0484L21.7495 0.687582H23.6186L35.2421 31.0484L34.1907 31.1652L40.7911 0.512422H44.9382L36.4103 40.2151H34.4244L22.0415 7.16845H23.3265L10.9436 40.2151H8.9577ZM62.6363 40.2151V21.5315L47.5666 0.512422H52.8235L64.6807 17.5028L76.5379 0.512422H81.7364L66.725 21.5315V40.2151H62.6363ZM101.245 40.7989C98.4805 40.7989 95.891 40.2734 93.4767 39.2225C91.1014 38.1326 88.9986 36.6535 87.1684 34.7851C85.3772 32.8779 83.9754 30.6981 82.9629 28.2459C81.9505 25.7937 81.4443 23.1857 81.4443 20.4221C81.4443 17.6974 81.9311 15.109 82.9045 12.6568C83.878 10.2045 85.2604 8.02479 87.0516 6.1175C88.8429 4.21022 90.9456 2.71164 93.3599 1.62176C95.7742 0.531886 98.4026 -0.0130538 101.245 -0.0130538C104.01 -0.0130538 106.599 0.512423 109.014 1.56338C111.428 2.61433 113.55 4.09345 115.38 6.00073C117.211 7.86909 118.612 10.0683 119.586 12.5984H115.088C113.531 9.71798 111.486 7.59662 108.955 6.23427C106.424 4.87193 103.659 4.19076 100.661 4.19076C99.0257 4.19076 97.3318 4.56054 95.5795 5.3001C93.8272 6.00073 92.1722 7.05168 90.6147 8.45295C89.096 9.85422 87.8694 11.5669 86.9348 13.5909C86.0002 15.5761 85.533 17.8531 85.533 20.4221C85.533 22.6408 85.9418 24.7427 86.7596 26.7278C87.5773 28.674 88.7066 30.3867 90.1474 31.8658C91.5881 33.3449 93.2431 34.5127 95.1122 35.369C97.0203 36.1864 99.0646 36.5951 101.245 36.5951C104.283 36.5951 107.028 35.7972 109.481 34.2013C111.934 32.6054 113.823 30.5619 115.147 28.0707H119.644C118.671 30.6008 117.25 32.8195 115.38 34.7268C113.55 36.634 111.409 38.1326 108.955 39.2225C106.541 40.2734 103.971 40.7989 101.245 40.7989ZM123.149 40.2151V36.4199H127.53V4.30753H123.149V0.512422H135.999V4.30753H131.618V36.4199H135.999V40.2151H123.149ZM155.8 40.9741C153.58 40.9741 151.594 40.76 149.842 40.3318C148.129 39.9426 146.63 39.3393 145.345 38.5219C144.099 37.6655 143.067 36.6146 142.249 35.369C141.431 34.0845 140.847 32.6054 140.497 30.9316H145.345C145.617 32.3329 146.162 33.5006 146.98 34.4348C147.837 35.369 148.985 36.0696 150.426 36.5367C151.906 37.0038 153.697 37.2374 155.8 37.2374C157.669 37.2374 159.382 37.0038 160.94 36.5367C162.498 36.0307 163.744 35.2133 164.678 34.0845C165.652 32.9557 166.138 31.4571 166.138 29.5888C166.138 28.3043 165.71 27.2144 164.853 26.3191C164.036 25.385 162.965 24.6259 161.641 24.0421C160.356 23.4193 159.012 22.9133 157.611 22.524C156.209 22.0959 154.924 21.7455 153.756 21.4731C151.731 21.006 149.959 20.4416 148.44 19.7799C146.922 19.1182 145.656 18.3591 144.644 17.5028C143.631 16.6076 142.872 15.6345 142.366 14.5835C141.859 13.5326 141.606 12.3648 141.606 11.0803C141.606 9.21197 141.937 7.57716 142.599 6.17589C143.3 4.77462 144.254 3.60689 145.461 2.67272C146.669 1.73854 148.07 1.05736 149.667 0.629194C151.263 0.162104 152.957 -0.0714417 154.749 -0.0714417C156.696 -0.0714417 158.428 0.103717 159.947 0.454034C161.466 0.804354 162.79 1.34929 163.919 2.08885C165.087 2.78949 166.041 3.68474 166.781 4.77462C167.56 5.86449 168.124 7.12953 168.475 8.56973H164.036C163.646 6.85706 162.673 5.57256 161.115 4.71623C159.597 3.8599 157.474 3.43173 154.749 3.43173C153.113 3.43173 151.614 3.66528 150.251 4.13237C148.888 4.59946 147.798 5.31956 146.98 6.29266C146.201 7.26576 145.812 8.51134 145.812 10.0294C145.812 11.3917 146.201 12.54 146.98 13.4742C147.759 14.4083 148.752 15.1674 149.959 15.7512C151.166 16.3351 152.451 16.8216 153.814 17.2109C155.216 17.6001 156.52 17.9504 157.727 18.2618C159.441 18.69 161.057 19.196 162.575 19.7799C164.094 20.3248 165.438 21.006 166.606 21.8234C167.774 22.6408 168.689 23.6528 169.351 24.8595C170.013 26.0661 170.344 27.5452 170.344 29.2968C170.344 31.3598 169.935 33.1309 169.117 34.61C168.339 36.0891 167.248 37.2957 165.846 38.2299C164.484 39.1641 162.926 39.8453 161.174 40.2734C159.46 40.7405 157.669 40.9741 155.8 40.9741ZM176.243 40.2151V0.512422H180.332V19.1376L193.708 0.512422H198.965L184.362 20.3637L198.965 40.2151H193.708L180.332 21.5898V40.2151H176.243ZM200.133 40.2151L216.488 0.512422H218.707L235.004 40.2151H230.565L226.301 29.4136H208.836L204.572 40.2151H200.133ZM210.355 25.6185H224.782L217.598 7.34361L210.355 25.6185ZM239.969 40.2151V0.512422H252.702C255.077 0.512422 257.219 1.0379 259.127 2.08885C261.035 3.10088 262.534 4.52161 263.625 6.35104C264.754 8.14155 265.318 10.1851 265.318 12.4816C265.318 14.7392 264.793 16.7438 263.741 18.4954C262.69 20.247 261.288 21.6482 259.536 22.6992C257.822 23.7112 255.895 24.2951 253.753 24.4508L265.961 40.2151H260.47L248.847 24.5092H244.057V40.2151H239.969ZM244.057 20.5973H253.286C254.921 20.5973 256.323 20.2275 257.492 19.4879C258.699 18.7095 259.614 17.6974 260.237 16.4519C260.899 15.2063 261.23 13.8439 261.23 12.3648C261.23 10.8468 260.899 9.5039 260.237 8.33618C259.614 7.12953 258.718 6.17589 257.55 5.47526C256.382 4.77462 254.96 4.4243 253.286 4.4243H244.057V20.5973ZM271.744 40.2151V0.512422H275.832V19.1376L289.208 0.512422H294.465L279.862 20.3637L294.465 40.2151H289.208L275.832 21.5898V40.2151H271.744ZM295.633 40.2151L311.988 0.512422H314.208L330.504 40.2151H326.065L321.801 29.4136H304.336L300.072 40.2151H295.633ZM305.855 25.6185H320.282L313.098 7.34361L305.855 25.6185Z" fill="#ffffff"/>
</g>
<defs>

</defs>
</svg>
